<svg width="720" height="960" viewBox="0 0 720 960" fill="none" xmlns="http://www.w3.org/2000/svg">
  <rect width="720" height="960" fill="#DCE5EE"/>
  <rect x="32" y="24" width="656" height="912" rx="38" fill="#E8F0F7" stroke="#C9D6E2" stroke-width="2"/>
  <text x="62" y="59" fill="#182334" font-family="Arial, PingFang SC, sans-serif" font-size="20" font-weight="700">9:41</text>
  <text x="572" y="59" fill="#182334" font-family="Arial, PingFang SC, sans-serif" font-size="17" font-weight="700">5G</text>
  <rect x="618" y="43" width="34" height="17" rx="4" stroke="#182334" stroke-width="3"/>
  <rect x="72" y="118" width="576" height="106" rx="20" fill="#FFFFFF" opacity="0.78"/>
  <rect x="98" y="145" width="188" height="13" rx="6.5" fill="#C5D3E1"/><rect x="98" y="178" width="390" height="12" rx="6" fill="#D5E0EA"/>
  <rect x="72" y="250" width="576" height="142" rx="20" fill="#FFFFFF" opacity="0.72"/>
  <rect x="98" y="278" width="126" height="14" rx="7" fill="#C5D3E1"/><rect x="98" y="314" width="250" height="20" rx="10" fill="#70859C"/><rect x="98" y="354" width="156" height="11" rx="5.5" fill="#D5E0EA"/>
  <rect x="52" y="486" width="616" height="400" rx="30" fill="#FFFFFF" stroke="#CFDAE5" stroke-width="2"/>
  <rect x="298" y="528" width="124" height="124" rx="28" fill="#172E49"/>
  <path d="M330 610C346 578 362 570 382 583C396 592 400 603 414 580" stroke="#57D5A4" stroke-width="10" stroke-linecap="round"/>
  <circle cx="330" cy="610" r="7" fill="#FECA57"/><circle cx="414" cy="580" r="7" fill="#FECA57"/>
  <text x="360" y="697" text-anchor="middle" fill="#172033" font-family="Arial, PingFang SC, sans-serif" font-size="25" font-weight="700">将“估基”添加到主屏幕？</text>
  <text x="360" y="733" text-anchor="middle" fill="#607086" font-family="Arial, PingFang SC, sans-serif" font-size="17">以后可从桌面像 App 一样打开</text>
  <rect x="82" y="774" width="262" height="70" rx="16" fill="#F3F6F9"/>
  <text x="213" y="818" text-anchor="middle" fill="#526278" font-family="Arial, PingFang SC, sans-serif" font-size="21" font-weight="700">取消</text>
  <rect x="374" y="770" width="266" height="78" rx="18" fill="#EFFAF4" stroke="#FF3B30" stroke-width="5"/>
  <text x="507" y="818" text-anchor="middle" fill="#16794A" font-family="Arial, PingFang SC, sans-serif" font-size="22" font-weight="700">添加</text>
  <circle cx="657" cy="768" r="22" fill="#FF3B30"/><text x="651" y="776" fill="white" font-family="Arial, sans-serif" font-size="18" font-weight="700">3</text>
  <rect x="326" y="423" width="68" height="52" rx="15" fill="#FF3B30"/>
  <path d="M353 475L360 486L367 475" fill="#FF3B30"/>
  <text x="339" y="455" fill="white" font-family="Arial, PingFang SC, sans-serif" font-size="16" font-weight="700">确认</text>
  <text x="360" y="923" text-anchor="middle" fill="#607086" font-family="Arial, PingFang SC, sans-serif" font-size="18" font-weight="600">点击“添加”，桌面会出现估基图标</text>
</svg>
