<svg width="720" height="960" viewBox="0 0 720 960" fill="none" xmlns="http://www.w3.org/2000/svg">
  <rect width="720" height="960" fill="#EDF3F8"/>
  <rect x="32" y="24" width="656" height="912" rx="38" fill="#FFFFFF" stroke="#D6E0EA" stroke-width="2"/>
  <rect x="32" y="24" width="656" height="56" rx="38" fill="#F6F8FB"/>
  <rect x="32" y="54" width="656" height="26" fill="#F6F8FB"/>
  <text x="62" y="59" fill="#182334" font-family="Arial, PingFang SC, sans-serif" font-size="20" font-weight="700">9:41</text>
  <text x="572" y="59" fill="#182334" font-family="Arial, PingFang SC, sans-serif" font-size="17" font-weight="700">5G</text>
  <rect x="618" y="43" width="34" height="17" rx="4" stroke="#182334" stroke-width="3"/>
  <rect x="58" y="100" width="604" height="58" rx="29" fill="#F1F4F8"/>
  <circle cx="92" cy="129" r="13" fill="#3C8F5B"/>
  <text x="118" y="136" fill="#344257" font-family="Arial, PingFang SC, sans-serif" font-size="18" font-weight="600">www.myfunds.cc</text>
  <circle cx="622" cy="119" r="3.6" fill="#172033"/><circle cx="622" cy="131" r="3.6" fill="#172033"/><circle cx="622" cy="107" r="3.6" fill="#172033"/>
  <rect x="60" y="184" width="600" height="126" rx="18" fill="#15243A"/>
  <text x="84" y="224" fill="#B8C8DA" font-family="Arial, PingFang SC, sans-serif" font-size="15" font-weight="600">估基</text>
  <text x="84" y="266" fill="white" font-family="Arial, PingFang SC, sans-serif" font-size="26" font-weight="700">实时基金估值</text>
  <rect x="60" y="330" width="600" height="146" rx="18" fill="#FFFFFF" stroke="#DEE7EF" stroke-width="2"/>
  <text x="84" y="364" fill="#3A4960" font-family="Arial, PingFang SC, sans-serif" font-size="16" font-weight="600">我的基金</text>
  <text x="84" y="406" fill="#172033" font-family="Arial, PingFang SC, sans-serif" font-size="24" font-weight="700">今日收益</text>
  <text x="84" y="446" fill="#E5484D" font-family="Arial, PingFang SC, sans-serif" font-size="30" font-weight="700">+ 128.60</text>
  <rect x="60" y="496" width="600" height="150" rx="18" fill="#FFFFFF" stroke="#DEE7EF" stroke-width="2"/>
  <rect x="84" y="522" width="98" height="16" rx="8" fill="#DCE6F0"/><rect x="84" y="554" width="226" height="20" rx="10" fill="#233B57"/><rect x="84" y="592" width="152" height="12" rx="6" fill="#DCE6F0"/>
  <rect x="326" y="175" width="322" height="494" rx="24" fill="#FFFFFF" stroke="#D6E0EA" stroke-width="2"/>
  <text x="359" y="224" fill="#172033" font-family="Arial, PingFang SC, sans-serif" font-size="18" font-weight="600">新建标签页</text>
  <text x="359" y="282" fill="#172033" font-family="Arial, PingFang SC, sans-serif" font-size="18" font-weight="600">历史记录</text>
  <path d="M352 310H622" stroke="#E7EDF3" stroke-width="2"/>
  <rect x="342" y="328" width="290" height="82" rx="15" fill="#FFF5F4" stroke="#FF3B30" stroke-width="5"/>
  <path d="M372 356H392V382H372V356Z" stroke="#FF3B30" stroke-width="3"/><path d="M377 351C377 343 387 343 387 351" stroke="#FF3B30" stroke-width="3" stroke-linecap="round"/>
  <text x="414" y="379" fill="#172033" font-family="Arial, PingFang SC, sans-serif" font-size="21" font-weight="700">安装应用</text>
  <circle cx="327" cy="327" r="22" fill="#FF3B30"/><text x="321" y="335" fill="white" font-family="Arial, sans-serif" font-size="18" font-weight="700">2</text>
  <text x="359" y="462" fill="#172033" font-family="Arial, PingFang SC, sans-serif" font-size="18" font-weight="600">添加到主屏幕</text>
  <text x="359" y="520" fill="#172033" font-family="Arial, PingFang SC, sans-serif" font-size="18" font-weight="600">下载内容</text>
  <text x="359" y="578" fill="#172033" font-family="Arial, PingFang SC, sans-serif" font-size="18" font-weight="600">设置</text>
  <rect x="387" y="692" width="246" height="62" rx="18" fill="#FF3B30"/>
  <path d="M500 754L510 768L519 754" fill="#FF3B30"/>
  <text x="410" y="730" fill="white" font-family="Arial, PingFang SC, sans-serif" font-size="18" font-weight="700">选择“安装应用”</text>
  <text x="360" y="923" text-anchor="middle" fill="#607086" font-family="Arial, PingFang SC, sans-serif" font-size="18" font-weight="600">部分浏览器显示为“添加到主屏幕”</text>
</svg>
